<svg xmlns="http://www.w3.org/2000/svg" xmlns:xlink="http://www.w3.org/1999/xlink" viewBox="0 0 3076.22 387.23"><defs><style>.cls-1{fill:url(#linear-gradient);}.cls-2{fill:#12191f;}.cls-3{clip-path:url(#clip-path);}.cls-4{fill:url(#linear-gradient-3);}.cls-5{fill:url(#linear-gradient-4);}.cls-6{fill:#93a2ad;}</style><linearGradient id="linear-gradient" y1="193.61" x2="387.23" y2="193.61" gradientUnits="userSpaceOnUse"><stop offset="0" stop-color="#ff7a7a"/><stop offset="1" stop-color="#ff7de5"/></linearGradient><clipPath id="clip-path" transform="translate(0 0)"><path class="cls-1" d="M14.71,14.71h357.8V372.52H14.71ZM14.71,0A14.71,14.71,0,0,0,0,14.7H0V372.52a14.71,14.71,0,0,0,14.7,14.71H372.51a14.72,14.72,0,0,0,14.72-14.7h0V14.71A14.72,14.72,0,0,0,372.52,0Z"/></clipPath><linearGradient id="linear-gradient-3" y1="193.62" x2="387.23" y2="193.62" xlink:href="#linear-gradient"/><linearGradient id="linear-gradient-4" x1="58.08" y1="192.09" x2="185.16" y2="192.09" xlink:href="#linear-gradient"/></defs><g id="Layer_2" data-name="Layer 2"><g id="Layer_1-2" data-name="Layer 1"><rect class="cls-2" x="14.71" y="14.71" width="357.81" height="357.81"/><path class="cls-1" d="M14.71,14.71h357.8V372.52H14.71ZM14.71,0A14.71,14.71,0,0,0,0,14.7H0V372.52a14.71,14.71,0,0,0,14.7,14.71H372.51a14.72,14.72,0,0,0,14.72-14.7h0V14.71A14.72,14.72,0,0,0,372.52,0Z" transform="translate(0 0)"/><g class="cls-3"><rect class="cls-4" width="387.23" height="387.23"/></g><polygon class="cls-5" points="120.8 116.12 120.8 154.57 99.29 167.24 99.29 128.52 58.08 152.27 58.08 233.09 81.02 247.28 81.02 305.16 185.16 305.16 185.16 79.02 120.8 116.12"/><polygon class="cls-6" points="266.4 116.12 266.4 154.57 287.55 167.24 287.55 128.52 328.04 152.27 328.04 233.09 305.5 247.28 305.5 305.16 203.15 305.16 203.15 79.02 266.4 116.12"/><path class="cls-2" d="M541.46,93h35.77v84.62h97.12V93h35.77V296.57H674.35V210.78H577.23v85.79H541.46Z" transform="translate(0 0)"/><path class="cls-2" d="M741.81,195.37v-.58c0-57.87,43.33-105.27,105-105.27,37.51,0,60.2,13.09,79.68,31.7l-23,26.46c-16.29-15.12-33.74-25.3-57-25.3-38.67,0-67.17,32-67.17,71.83v.58c0,39.84,28.21,72.11,67.17,72.11,25,0,41-9.88,58.45-26.17l23,23.27c-21.23,22.1-44.49,36.05-82.58,36.05C786,300.05,741.81,253.82,741.81,195.37Z" transform="translate(0 0)"/><path class="cls-2" d="M953.79,93h35.77V264h107v32.57H953.79Z" transform="translate(0 0)"/><path class="cls-2" d="M1197.75,93h75.9c64,0,108.17,43.91,108.17,101.2v.58c0,57.28-44.2,101.78-108.17,101.78h-75.9Zm35.77,32.57V264h40.13c42.74,0,70.66-28.79,70.66-68.63v-.58c0-39.84-27.92-69.21-70.66-69.21Z" transform="translate(0 0)"/><path class="cls-2" d="M1401,220.67v-.58c0-43.91,34.89-80.26,82-80.26s81.71,35.77,81.71,79.68v.58c0,43.62-34.89,80-82.29,80C1435.61,300.05,1401,264.29,1401,220.67Zm128.53,0v-.58c0-27.05-19.49-49.44-47.11-49.44-28.21,0-46.24,22.1-46.24,48.86v.58c0,26.75,19.49,49.14,46.82,49.14C1511.51,269.23,1529.54,247.13,1529.54,220.67Z" transform="translate(0 0)"/><path class="cls-2" d="M1588.86,143H1624v23.26c9.89-13.66,23.27-26.46,46.82-26.46,22.1,0,37.8,10.76,45.94,27,12.22-16.28,28.5-27,51.76-27,33.44,0,53.8,21.23,53.8,58.74v98h-35.19V209.33c0-24.43-11.34-37.51-31.11-37.51-19.19,0-32.86,13.37-32.86,38.09v86.66H1688V209c0-23.85-11.64-37.22-31.12-37.22S1624,186.36,1624,209.91v86.66h-35.18Z" transform="translate(0 0)"/><path class="cls-2" d="M1854.05,86h37.8v33.44h-37.8Zm1.46,57h35.18V296.57h-35.18Z" transform="translate(0 0)"/><path class="cls-2" d="M1925,143h35.19v23.55c9.89-14.25,24.13-26.75,48-26.75,34.6,0,54.67,23.26,54.67,58.74v98h-35.19V209.33c0-23.85-11.92-37.51-32.86-37.51-20.35,0-34.6,14.25-34.6,38.09v86.66H1925Z" transform="translate(0 0)"/><path class="cls-2" d="M2085.22,220.67v-.58c0-43.91,34.9-80.26,82-80.26s81.71,35.77,81.71,79.68v.58c0,43.62-34.9,80-82.29,80C2119.83,300.05,2085.22,264.29,2085.22,220.67Zm128.53,0v-.58c0-27.05-19.48-49.44-47.1-49.44-28.21,0-46.24,22.1-46.24,48.86v.58c0,26.75,19.48,49.14,46.82,49.14C2195.72,269.23,2213.75,247.13,2213.75,220.67Z" transform="translate(0 0)"/><path class="cls-2" d="M2352.74,93h35.77V195.37L2485.34,93h44.2l-84.91,87.53,88.69,116H2489.7L2420.21,205l-31.7,32.57v59h-35.77Z" transform="translate(0 0)"/><path class="cls-2" d="M2552.22,93h150.92v32H2588v52.92h102.07v32H2588v54.67h116.6v32H2552.22Z" transform="translate(0 0)"/><path class="cls-2" d="M2735.42,93h150.92v32H2771.18v52.92h102.07v32H2771.18v54.67h116.61v32H2735.42Z" transform="translate(0 0)"/><path class="cls-2" d="M2918.61,93h80.26c47.69,0,77.35,27.05,77.35,68.05v.58c0,45.65-36.64,69.5-81.42,69.5h-40.42v65.43h-35.77ZM2996,198.86c27,0,43.91-15.12,43.91-36.35v-.58c0-23.84-17.16-36.35-43.91-36.35h-41.58v73.28Z" transform="translate(0 0)"/></g></g></svg>