<?xml version="1.0" standalone="no"?><!DOCTYPE svg PUBLIC "-//W3C//DTD SVG 1.1//EN" "http://www.w3.org/Graphics/SVG/1.1/DTD/svg11.dtd"><svg xmlns="http://www.w3.org/2000/svg" version="1.1" width="833" height="667.167" xmlns:xlink="http://www.w3.org/1999/xlink" xlink="http://www.w3.org/1999/xlink" style="position:relative;overflow:hidden;" viewBox="80.5 41.333 833 667.167"><defs><filter id="40d7bca7-bfd4-4f4f-83b0-abfa07663edb" x="-0.5" y="-0.5" width="2" height="2"><feMerge><feMergeNode in="SourceGraphic"/></feMerge></filter></defs><g><g width="526" height="526.333" transform="scale(1,1) translate(257.5,114.333)"><g width="526" height="526.333" transform="scale(1,1) translate(0,0)" stroke="#A5BABA" stroke-width="0" stroke-dasharray="none" fill="url(#82546127-4b3a-4f01-80c9-c31ffaeb7225)" stroke-opacity="1" filter="url(#40d7bca7-bfd4-4f4f-83b0-abfa07663edb)"><linearGradient id="82546127-4b3a-4f01-80c9-c31ffaeb7225" x1="0" y1="263.1665" x2="526" y2="263.1665" gradientUnits="userSpaceOnUse"><stop offset="0%" style="stop-color:#FFFFFF;stop-opacity:1;"/><stop offset="100%" style="stop-color:#A5BABA;stop-opacity:1;"/></linearGradient><ellipse rx="263" ry="263.1665" cx="263" cy="263.1665"/></g></g><g width="425.333" height="74.833" transform="scale(1,1) translate(98,53.833)"><g transform="scale(1,1) translate(0,0)" stroke="#78CED7" fill="#78CED7" fill-opacity="1" stroke-opacity="1"><path d="M37,0 L28.675,0.949 L25.303,1.897 L22.769,2.846 L20.678,3.795 L18.875,4.744 L17.281,5.692 L15.85,6.641 L14.549,7.59 L13.358,8.538 L12.26,9.487 L11.244,10.436 L10.301,11.385 L9.422,12.333 L8.602,13.282 L7.836,14.231 L7.119,15.179 L6.449,16.128 L5.822,17.077 L5.236,18.026 L4.688,18.974 L4.177,19.923 L3.7,20.872 L3.257,21.821 L2.846,22.769 L2.466,23.718 L2.116,24.667 L1.795,25.615 L1.502,26.564 L1.237,27.513 L0.999,28.462 L0.787,29.41 L0.601,30.359 L0.44,31.308 L0.305,32.256 L0.195,33.205 L0.11,34.154 L0.049,35.103 L0.012,36.051 L0,37 L0,37.833 L0.012,38.782 L0.049,39.731 L0.11,40.679 L0.195,41.628 L0.305,42.577 L0.44,43.526 L0.601,44.474 L0.787,45.423 L0.999,46.372 L1.237,47.321 L1.502,48.269 L1.795,49.218 L2.116,50.167 L2.466,51.115 L2.846,52.064 L3.257,53.013 L3.7,53.962 L4.177,54.91 L4.688,55.859 L5.236,56.808 L5.822,57.756 L6.449,58.705 L7.119,59.654 L7.836,60.603 L8.602,61.551 L9.422,62.5 L10.301,63.449 L11.244,64.397 L12.26,65.346 L13.358,66.295 L14.549,67.244 L15.85,68.192 L17.281,69.141 L18.875,70.09 L20.678,71.038 L22.769,71.987 L25.303,72.936 L28.675,73.885 L37,74.833 L388.333,74.833 L396.658,73.885 L400.03,72.936 L402.564,71.987 L404.656,71.038 L406.459,70.09 L408.052,69.141 L409.484,68.192 L410.784,67.244 L411.975,66.295 L413.073,65.346 L414.089,64.397 L415.033,63.449 L415.912,62.5 L416.732,61.551 L417.498,60.603 L418.214,59.654 L418.884,58.705 L419.511,57.756 L420.098,56.808 L420.646,55.859 L421.157,54.91 L421.633,53.962 L422.076,53.013 L422.487,52.064 L422.867,51.115 L423.217,50.167 L423.538,49.218 L423.831,48.269 L424.096,47.321 L424.335,46.372 L424.547,45.423 L424.732,44.474 L424.893,43.526 L425.028,42.577 L425.138,41.628 L425.224,40.679 L425.285,39.731 L425.321,38.782 L425.333,37.833 L425.333,37 L425.321,36.051 L425.285,35.103 L425.224,34.154 L425.138,33.205 L425.028,32.256 L424.893,31.308 L424.732,30.359 L424.547,29.41 L424.335,28.462 L424.096,27.513 L423.831,26.564 L423.538,25.615 L423.217,24.667 L422.867,23.718 L422.487,22.769 L422.076,21.821 L421.633,20.872 L421.157,19.923 L420.646,18.974 L420.098,18.026 L419.511,17.077 L418.884,16.128 L418.214,15.179 L417.498,14.231 L416.732,13.282 L415.912,12.333 L415.033,11.385 L414.089,10.436 L413.073,9.487 L411.975,8.538 L410.784,7.59 L409.484,6.641 L408.052,5.692 L406.459,4.744 L404.656,3.795 L402.564,2.846 L400.03,1.897 L396.658,0.949 L388.333,0 L37,0 z" stroke-width="1" stroke-dasharray="none"/></g><g width="290" height="42.166666666666664" transform="scale(1,1) translate(67.667,16.333)"><text width="290" height="18.61979103088379" transform="scale(1,1) translate(0,11.773437817891438)" xml:space="preserve"><tspan xml:space="preserve" text-rendering="optimizeSpeed" style="font-family: Arial, Helvetica Neue, Helvetica, sans-serif;" font-size="16.666666666666668" font-weight="bold" font-style="normal" text-decoration="none" fill="#FFFFFF" opacity="1" x="34.762" text-anchor="start" y="15.088" textLength="220.47525024414062">Modern Java API (Java 8++)</tspan></text></g></g><g width="425.333" height="75" transform="scale(1,1) translate(99,215)"><g transform="scale(1,1) translate(0,0)" stroke="#BDCCCB" fill="#7F7F7F" fill-opacity="1" stroke-opacity="1"><path d="M37,0 L28.675,0.949 L25.303,1.897 L22.769,2.846 L20.678,3.795 L18.875,4.744 L17.281,5.692 L15.85,6.641 L14.549,7.59 L13.358,8.538 L12.26,9.487 L11.244,10.436 L10.301,11.385 L9.422,12.333 L8.602,13.282 L7.836,14.231 L7.119,15.179 L6.449,16.128 L5.822,17.077 L5.236,18.026 L4.688,18.974 L4.177,19.923 L3.7,20.872 L3.257,21.821 L2.846,22.769 L2.466,23.718 L2.116,24.667 L1.795,25.615 L1.502,26.564 L1.237,27.513 L0.999,28.462 L0.787,29.41 L0.601,30.359 L0.44,31.308 L0.305,32.256 L0.195,33.205 L0.11,34.154 L0.049,35.103 L0.012,36.051 L0,37 L0,38 L0.012,38.949 L0.049,39.897 L0.11,40.846 L0.195,41.795 L0.305,42.744 L0.44,43.692 L0.601,44.641 L0.787,45.59 L0.999,46.538 L1.237,47.487 L1.502,48.436 L1.795,49.385 L2.116,50.333 L2.466,51.282 L2.846,52.231 L3.257,53.179 L3.7,54.128 L4.177,55.077 L4.688,56.026 L5.236,56.974 L5.822,57.923 L6.449,58.872 L7.119,59.821 L7.836,60.769 L8.602,61.718 L9.422,62.667 L10.301,63.615 L11.244,64.564 L12.26,65.513 L13.358,66.462 L14.549,67.41 L15.85,68.359 L17.281,69.308 L18.875,70.256 L20.678,71.205 L22.769,72.154 L25.303,73.103 L28.675,74.051 L37,75 L388.333,75 L396.658,74.051 L400.03,73.103 L402.564,72.154 L404.656,71.205 L406.459,70.256 L408.052,69.308 L409.484,68.359 L410.784,67.41 L411.975,66.462 L413.073,65.513 L414.089,64.564 L415.033,63.615 L415.912,62.667 L416.732,61.718 L417.498,60.769 L418.214,59.821 L418.884,58.872 L419.511,57.923 L420.098,56.974 L420.646,56.026 L421.157,55.077 L421.633,54.128 L422.076,53.179 L422.487,52.231 L422.867,51.282 L423.217,50.333 L423.538,49.385 L423.831,48.436 L424.096,47.487 L424.335,46.538 L424.547,45.59 L424.732,44.641 L424.893,43.692 L425.028,42.744 L425.138,41.795 L425.224,40.846 L425.285,39.897 L425.321,38.949 L425.333,38 L425.333,37 L425.321,36.051 L425.285,35.103 L425.224,34.154 L425.138,33.205 L425.028,32.256 L424.893,31.308 L424.732,30.359 L424.547,29.41 L424.335,28.462 L424.096,27.513 L423.831,26.564 L423.538,25.615 L423.217,24.667 L422.867,23.718 L422.487,22.769 L422.076,21.821 L421.633,20.872 L421.157,19.923 L420.646,18.974 L420.098,18.026 L419.511,17.077 L418.884,16.128 L418.214,15.179 L417.498,14.231 L416.732,13.282 L415.912,12.333 L415.033,11.385 L414.089,10.436 L413.073,9.487 L411.975,8.538 L410.784,7.59 L409.484,6.641 L408.052,5.692 L406.459,4.744 L404.656,3.795 L402.564,2.846 L400.03,1.897 L396.658,0.949 L388.333,0 L37,0 z" stroke-width="1" stroke-dasharray="none"/></g><g width="290" height="42.33333333333333" transform="scale(1,1) translate(67.667,16.333)"><text width="290" height="18.61979103088379" transform="scale(1,1) translate(0,11.85677115122477)" xml:space="preserve"><tspan xml:space="preserve" text-rendering="optimizeSpeed" style="font-family: Arial, Helvetica Neue, Helvetica, sans-serif;" font-size="16.666666666666668" font-weight="bold" font-style="normal" text-decoration="none" fill="#FFFFFF" opacity="1" x="51.913" text-anchor="start" y="15.088" textLength="186.17349243164062">Extensible Architecture</tspan></text></g></g><g width="422.333" height="75.333" transform="scale(1,1) translate(99,296.333)"><g transform="scale(1,1) translate(0,0)" stroke="#636868" fill="#FAC090" fill-opacity="1" stroke-opacity="0"><path d="M37,0 L28.675,0.949 L25.303,1.897 L22.769,2.846 L20.678,3.795 L18.875,4.744 L17.281,5.692 L15.85,6.641 L14.549,7.59 L13.358,8.538 L12.26,9.487 L11.244,10.436 L10.301,11.385 L9.422,12.333 L8.602,13.282 L7.836,14.231 L7.119,15.179 L6.449,16.128 L5.822,17.077 L5.236,18.026 L4.688,18.974 L4.177,19.923 L3.7,20.872 L3.257,21.821 L2.846,22.769 L2.466,23.718 L2.116,24.667 L1.795,25.615 L1.502,26.564 L1.237,27.513 L0.999,28.462 L0.787,29.41 L0.601,30.359 L0.44,31.308 L0.305,32.256 L0.195,33.205 L0.11,34.154 L0.049,35.103 L0.012,36.051 L0,37 L0,38.333 L0.012,39.282 L0.049,40.231 L0.11,41.179 L0.195,42.128 L0.305,43.077 L0.44,44.026 L0.601,44.974 L0.787,45.923 L0.999,46.872 L1.237,47.821 L1.502,48.769 L1.795,49.718 L2.116,50.667 L2.466,51.615 L2.846,52.564 L3.257,53.513 L3.7,54.462 L4.177,55.41 L4.688,56.359 L5.236,57.308 L5.822,58.256 L6.449,59.205 L7.119,60.154 L7.836,61.103 L8.602,62.051 L9.422,63 L10.301,63.949 L11.244,64.897 L12.26,65.846 L13.358,66.795 L14.549,67.744 L15.85,68.692 L17.281,69.641 L18.875,70.59 L20.678,71.538 L22.769,72.487 L25.303,73.436 L28.675,74.385 L37,75.333 L385.333,75.333 L393.658,74.385 L397.03,73.436 L399.564,72.487 L401.656,71.538 L403.459,70.59 L405.052,69.641 L406.484,68.692 L407.784,67.744 L408.975,66.795 L410.073,65.846 L411.089,64.897 L412.033,63.949 L412.912,63 L413.732,62.051 L414.498,61.103 L415.214,60.154 L415.884,59.205 L416.511,58.256 L417.098,57.308 L417.646,56.359 L418.157,55.41 L418.633,54.462 L419.076,53.513 L419.487,52.564 L419.867,51.615 L420.217,50.667 L420.538,49.718 L420.831,48.769 L421.096,47.821 L421.335,46.872 L421.547,45.923 L421.732,44.974 L421.893,44.026 L422.028,43.077 L422.138,42.128 L422.224,41.179 L422.285,40.231 L422.321,39.282 L422.333,38.333 L422.333,37 L422.321,36.051 L422.285,35.103 L422.224,34.154 L422.138,33.205 L422.028,32.256 L421.893,31.308 L421.732,30.359 L421.547,29.41 L421.335,28.462 L421.096,27.513 L420.831,26.564 L420.538,25.615 L420.217,24.667 L419.867,23.718 L419.487,22.769 L419.076,21.821 L418.633,20.872 L418.157,19.923 L417.646,18.974 L417.098,18.026 L416.511,17.077 L415.884,16.128 L415.214,15.179 L414.498,14.231 L413.732,13.282 L412.912,12.333 L412.033,11.385 L411.089,10.436 L410.073,9.487 L408.975,8.538 L407.784,7.59 L406.484,6.641 L405.052,5.692 L403.459,4.744 L401.656,3.795 L399.564,2.846 L397.03,1.897 L393.658,0.949 L385.333,0 L37,0 z" stroke-width="1" stroke-dasharray="none"/></g><g width="288" height="42.666666666666664" transform="scale(1,1) translate(67.167,16.333)"><text width="288" height="18.61979103088379" transform="scale(1,1) translate(0,12.023437817891438)" xml:space="preserve"><tspan xml:space="preserve" text-rendering="optimizeSpeed" style="font-family: Arial, Helvetica Neue, Helvetica, sans-serif;" font-size="16.666666666666668" font-weight="bold" font-style="normal" text-decoration="none" fill="#FFFFFF" opacity="1" x="81.04" text-anchor="start" y="15.088" textLength="125.91959381103516">Web Admin GUI</tspan></text></g></g><g width="425.333" height="74.667" transform="scale(1,1) translate(93,379.5)"><g transform="scale(1,1) translate(0,0)" stroke="#90C549" fill="#90C549" fill-opacity="1" stroke-opacity="1"><path d="M37,0 L28.675,0.949 L25.303,1.897 L22.769,2.846 L20.678,3.795 L18.875,4.744 L17.281,5.692 L15.85,6.641 L14.549,7.59 L13.358,8.538 L12.26,9.487 L11.244,10.436 L10.301,11.385 L9.422,12.333 L8.602,13.282 L7.836,14.231 L7.119,15.179 L6.449,16.128 L5.822,17.077 L5.236,18.026 L4.688,18.974 L4.177,19.923 L3.7,20.872 L3.257,21.821 L2.846,22.769 L2.466,23.718 L2.116,24.667 L1.795,25.615 L1.502,26.564 L1.237,27.513 L0.999,28.462 L0.787,29.41 L0.601,30.359 L0.44,31.308 L0.305,32.256 L0.195,33.205 L0.11,34.154 L0.049,35.103 L0.012,36.051 L0,37 L0,37.667 L0.012,38.615 L0.049,39.564 L0.11,40.513 L0.195,41.462 L0.305,42.41 L0.44,43.359 L0.601,44.308 L0.787,45.256 L0.999,46.205 L1.237,47.154 L1.502,48.103 L1.795,49.051 L2.116,50 L2.466,50.949 L2.846,51.897 L3.257,52.846 L3.7,53.795 L4.177,54.744 L4.688,55.692 L5.236,56.641 L5.822,57.59 L6.449,58.538 L7.119,59.487 L7.836,60.436 L8.602,61.385 L9.422,62.333 L10.301,63.282 L11.244,64.231 L12.26,65.179 L13.358,66.128 L14.549,67.077 L15.85,68.026 L17.281,68.974 L18.875,69.923 L20.678,70.872 L22.769,71.821 L25.303,72.769 L28.675,73.718 L37,74.667 L388.333,74.667 L396.658,73.718 L400.03,72.769 L402.564,71.821 L404.656,70.872 L406.459,69.923 L408.052,68.974 L409.484,68.026 L410.784,67.077 L411.975,66.128 L413.073,65.179 L414.089,64.231 L415.033,63.282 L415.912,62.333 L416.732,61.385 L417.498,60.436 L418.214,59.487 L418.884,58.538 L419.511,57.59 L420.098,56.641 L420.646,55.692 L421.157,54.744 L421.633,53.795 L422.076,52.846 L422.487,51.897 L422.867,50.949 L423.217,50 L423.538,49.051 L423.831,48.103 L424.096,47.154 L424.335,46.205 L424.547,45.256 L424.732,44.308 L424.893,43.359 L425.028,42.41 L425.138,41.462 L425.224,40.513 L425.285,39.564 L425.321,38.615 L425.333,37.667 L425.333,37 L425.321,36.051 L425.285,35.103 L425.224,34.154 L425.138,33.205 L425.028,32.256 L424.893,31.308 L424.732,30.359 L424.547,29.41 L424.335,28.462 L424.096,27.513 L423.831,26.564 L423.538,25.615 L423.217,24.667 L422.867,23.718 L422.487,22.769 L422.076,21.821 L421.633,20.872 L421.157,19.923 L420.646,18.974 L420.098,18.026 L419.511,17.077 L418.884,16.128 L418.214,15.179 L417.498,14.231 L416.732,13.282 L415.912,12.333 L415.033,11.385 L414.089,10.436 L413.073,9.487 L411.975,8.538 L410.784,7.59 L409.484,6.641 L408.052,5.692 L406.459,4.744 L404.656,3.795 L402.564,2.846 L400.03,1.897 L396.658,0.949 L388.333,0 L37,0 z" stroke-width="1" stroke-dasharray="none"/></g><g width="290.16666666666663" height="42.166666666666664" transform="scale(1,1) translate(67.667,16.333)"><text width="290.16666666666663" height="18.61979103088379" transform="scale(1,1) translate(0,11.773437817891438)" xml:space="preserve"><tspan xml:space="preserve" text-rendering="optimizeSpeed" style="font-family: Arial, Helvetica Neue, Helvetica, sans-serif;" font-size="16.666666666666668" font-weight="bold" font-style="normal" text-decoration="none" fill="#FFFFFF" opacity="1" x="49.238" text-anchor="start" y="15.088" textLength="191.69107055664062">Design, Admin and Data</tspan></text></g></g><g width="425.333" height="74.667" transform="scale(1,1) translate(97,621.333)"><g transform="scale(1,1) translate(0,0)" stroke="#F5C332" fill="#F5C332" fill-opacity="1" stroke-opacity="1"><path d="M37,0 L28.675,0.949 L25.303,1.897 L22.769,2.846 L20.678,3.795 L18.875,4.744 L17.281,5.692 L15.85,6.641 L14.549,7.59 L13.358,8.538 L12.26,9.487 L11.244,10.436 L10.301,11.385 L9.422,12.333 L8.602,13.282 L7.836,14.231 L7.119,15.179 L6.449,16.128 L5.822,17.077 L5.236,18.026 L4.688,18.974 L4.177,19.923 L3.7,20.872 L3.257,21.821 L2.846,22.769 L2.466,23.718 L2.116,24.667 L1.795,25.615 L1.502,26.564 L1.237,27.513 L0.999,28.462 L0.787,29.41 L0.601,30.359 L0.44,31.308 L0.305,32.256 L0.195,33.205 L0.11,34.154 L0.049,35.103 L0.012,36.051 L0,37 L0,37.667 L0.012,38.615 L0.049,39.564 L0.11,40.513 L0.195,41.462 L0.305,42.41 L0.44,43.359 L0.601,44.308 L0.787,45.256 L0.999,46.205 L1.237,47.154 L1.502,48.103 L1.795,49.051 L2.116,50 L2.466,50.949 L2.846,51.897 L3.257,52.846 L3.7,53.795 L4.177,54.744 L4.688,55.692 L5.236,56.641 L5.822,57.59 L6.449,58.538 L7.119,59.487 L7.836,60.436 L8.602,61.385 L9.422,62.333 L10.301,63.282 L11.244,64.231 L12.26,65.179 L13.358,66.128 L14.549,67.077 L15.85,68.026 L17.281,68.974 L18.875,69.923 L20.678,70.872 L22.769,71.821 L25.303,72.769 L28.675,73.718 L37,74.667 L388.333,74.667 L396.658,73.718 L400.03,72.769 L402.564,71.821 L404.656,70.872 L406.459,69.923 L408.052,68.974 L409.484,68.026 L410.784,67.077 L411.975,66.128 L413.073,65.179 L414.089,64.231 L415.033,63.282 L415.912,62.333 L416.732,61.385 L417.498,60.436 L418.214,59.487 L418.884,58.538 L419.511,57.59 L420.098,56.641 L420.646,55.692 L421.157,54.744 L421.633,53.795 L422.076,52.846 L422.487,51.897 L422.867,50.949 L423.217,50 L423.538,49.051 L423.831,48.103 L424.096,47.154 L424.335,46.205 L424.547,45.256 L424.732,44.308 L424.893,43.359 L425.028,42.41 L425.138,41.462 L425.224,40.513 L425.285,39.564 L425.321,38.615 L425.333,37.667 L425.333,37 L425.321,36.051 L425.285,35.103 L425.224,34.154 L425.138,33.205 L425.028,32.256 L424.893,31.308 L424.732,30.359 L424.547,29.41 L424.335,28.462 L424.096,27.513 L423.831,26.564 L423.538,25.615 L423.217,24.667 L422.867,23.718 L422.487,22.769 L422.076,21.821 L421.633,20.872 L421.157,19.923 L420.646,18.974 L420.098,18.026 L419.511,17.077 L418.884,16.128 L418.214,15.179 L417.498,14.231 L416.732,13.282 L415.912,12.333 L415.033,11.385 L414.089,10.436 L413.073,9.487 L411.975,8.538 L410.784,7.59 L409.484,6.641 L408.052,5.692 L406.459,4.744 L404.656,3.795 L402.564,2.846 L400.03,1.897 L396.658,0.949 L388.333,0 L37,0 z" stroke-width="1" stroke-dasharray="none"/></g><g width="290" height="42" transform="scale(1,1) translate(67.667,16.333)"><text width="290" height="18.61979103088379" transform="scale(1,1) translate(0,11.690104484558105)" xml:space="preserve"><tspan xml:space="preserve" text-rendering="optimizeSpeed" style="font-family: Arial, Helvetica Neue, Helvetica, sans-serif;" font-size="16.666666666666668" font-weight="bold" font-style="normal" text-decoration="none" fill="#FFFFFF" opacity="1" x="64.43" text-anchor="start" y="15.088" textLength="161.1409454345703">Quick to Get Started</tspan></text></g></g><g width="333.833" height="334" transform="scale(1,1) translate(567.167,207.333)"><g width="333.833" height="334"><g transform="scale(0.9999768342972517,1.0002460818654373) translate(0,0)"><g><g width="332.833" height="331.5" transform="scale(1,1) translate(0.492,1.918)"><g width="332.833" height="331.5" transform="scale(1,1) translate(0,0)" stroke="#A5BABA" stroke-width="1" stroke-dasharray="none" fill="#A5BABA" fill-opacity="1" stroke-opacity="1"><ellipse rx="166.4165" ry="165.75" cx="166.4165" cy="165.75"/></g></g><g width="83.333" height="192" transform="rotate(240,106.825,84.084) scale(1,1) translate(65.158,-11.916)"><g width="83.333" height="192" transform="scale(2.4038461538461537,2.410041841004184) translate(0,0)"><g width="30.333" height="31.167" transform="scale(1,1) translate(0,0)"><g transform="scale(1,1) translate(0,0)" stroke="#D5DFDF" fill="#F2F2F2" fill-opacity="0.2" stroke-opacity="1"><path d="M0,0 L0,0 L0.562,0.534 L1.116,1.072 L1.663,1.615 L2.203,2.162 L2.736,2.713 L3.262,3.269 L3.781,3.83 L4.293,4.395 L4.798,4.964 L5.296,5.537 L5.787,6.114 L6.272,6.696 L6.75,7.282 L7.221,7.873 L7.685,8.467 L8.143,9.066 L8.594,9.669 L9.038,10.276 L9.476,10.887 L9.907,11.503 L10.331,12.122 L10.749,12.746 L11.16,13.374 L11.565,14.005 L11.963,14.641 L12.354,15.282 L12.739,15.926 L13.117,16.574 L13.488,17.227 L13.853,17.884 L14.212,18.545 L14.563,19.21 L14.908,19.879 L15.246,20.552 L15.578,21.23 L15.903,21.912 L16.221,22.598 L16.532,23.288 L16.837,23.982 L17.135,24.681 L17.425,25.384 L17.709,26.092 L17.986,26.803 L18.256,27.52 L18.519,28.24 L18.775,28.965 L19.024,29.694 L19.266,30.428 L19.5,31.167 L19.5,31.167 L30.333,27.333 L30.333,27.333 L30.081,26.368 L29.808,25.427 L29.515,24.508 L29.202,23.61 L28.87,22.733 L28.521,21.876 L28.154,21.038 L27.771,20.219 L27.372,19.417 L26.957,18.633 L26.526,17.865 L26.081,17.114 L25.622,16.379 L25.148,15.66 L24.66,14.957 L24.159,14.269 L23.644,13.595 L23.115,12.937 L22.573,12.293 L22.019,11.664 L21.451,11.049 L20.87,10.449 L20.277,9.863 L19.671,9.291 L19.052,8.733 L18.42,8.189 L17.775,7.66 L17.118,7.145 L16.447,6.644 L15.764,6.157 L15.068,5.685 L14.358,5.228 L13.635,4.786 L12.898,4.358 L12.148,3.946 L11.384,3.55 L10.605,3.169 L9.812,2.804 L9.004,2.456 L8.181,2.124 L7.342,1.81 L6.487,1.514 L5.616,1.237 L4.727,0.978 L3.821,0.739 L2.896,0.521 L1.951,0.325 L0.986,0.15 L0,0 L0,0 z" stroke-width="0" stroke-dasharray="none"/></g></g><g width="12.667" height="43.833" transform="scale(1,1) translate(21,34.833)"><g transform="scale(1,1) translate(0,0)" stroke="#D5DFDF" fill="#F2F2F2" fill-opacity="0.2" stroke-opacity="1"><path d="M0,43.833 L0.237,43 L0.463,42.167 L0.679,41.333 L0.884,40.5 L1.08,39.667 L1.265,38.833 L1.439,38 L1.604,37.167 L1.759,36.333 L1.903,35.5 L2.038,34.667 L2.163,33.833 L2.278,33 L2.384,32.167 L2.479,31.333 L2.566,30.5 L2.642,29.667 L2.709,28.833 L2.766,28 L2.814,27.167 L2.852,26.333 L2.88,25.5 L2.899,24.667 L2.909,23.833 L2.909,23 L2.899,22.167 L2.88,21.333 L2.852,20.5 L2.814,19.667 L2.766,18.833 L2.709,18 L2.642,17.167 L2.566,16.333 L2.479,15.5 L2.384,14.667 L2.278,13.833 L2.163,13 L2.038,12.167 L1.903,11.333 L1.759,10.5 L1.604,9.667 L1.439,8.833 L1.265,8 L1.08,7.167 L0.884,6.333 L0.679,5.5 L0.463,4.667 L0.237,3.833 L0,3 L11.468,0 L11.468,0 L11.703,1.011 L11.913,2.015 L12.099,3.014 L12.263,4.007 L12.404,4.995 L12.524,5.978 L12.623,6.955 L12.701,7.927 L12.758,8.894 L12.796,9.856 L12.815,10.813 L12.814,11.765 L12.794,12.713 L12.755,13.656 L12.698,14.594 L12.623,15.528 L12.529,16.458 L12.418,17.383 L12.289,18.303 L12.142,19.219 L11.978,20.131 L11.796,21.039 L11.597,21.942 L11.38,22.841 L11.146,23.735 L10.895,24.626 L10.626,25.512 L10.34,26.393 L10.036,27.27 L9.715,28.143 L9.376,29.012 L9.019,29.876 L8.644,30.736 L8.251,31.591 L7.84,32.441 L7.411,33.288 L6.962,34.129 L6.495,34.966 L6.009,35.798 L5.503,36.625 L4.977,37.447 L4.431,38.264 L3.864,39.076 L3.276,39.883 L2.667,40.684 L2.035,41.48 L1.38,42.27 L0.702,43.055 L0,43.833 L0,43.833 z" stroke-width="0" stroke-dasharray="none"/></g></g></g></g><g width="332.833" height="287.5" transform="scale(1,1) translate(0.492,45.918)"><g transform="scale(1,1) translate(0,0)" stroke="#D5DFDF" fill="url(#2d01a6f5-9ed3-438f-8e58-2688d2dfc28b)" stroke-opacity="1" filter="url(#40d7bca7-bfd4-4f4f-83b0-abfa07663edb)"><linearGradient id="2d01a6f5-9ed3-438f-8e58-2688d2dfc28b" x1="0" y1="0" x2="332.93635655471877" y2="287.5000000000001" gradientUnits="userSpaceOnUse"><stop offset="0%" style="stop-color:#FFFFFF;stop-opacity:0.09803921568627451;"/><stop offset="100%" style="stop-color:#545454;stop-opacity:0.6;"/></linearGradient><path d="M278,0 L278,0 L280.32,1.933 L282.579,3.894 L284.779,5.882 L286.921,7.896 L289.007,9.935 L291.038,11.999 L293.014,14.088 L294.938,16.201 L296.81,18.336 L298.631,20.495 L300.402,22.677 L302.124,24.881 L303.796,27.107 L305.421,29.355 L306.998,31.624 L308.528,33.914 L310.011,36.226 L311.448,38.559 L312.838,40.912 L314.184,43.286 L315.483,45.681 L316.738,48.096 L317.947,50.531 L319.111,52.987 L320.23,55.463 L321.304,57.96 L322.333,60.477 L323.317,63.014 L324.255,65.572 L325.148,68.15 L325.995,70.749 L326.797,73.369 L327.552,76.01 L328.26,78.672 L328.921,81.355 L329.534,84.059 L330.1,86.786 L330.617,89.534 L331.084,92.305 L331.501,95.098 L331.867,97.915 L332.181,100.755 L332.442,103.619 L332.65,106.507 L332.802,109.42 L332.898,112.358 L332.936,115.323 L332.915,118.314 L332.833,121.333 L332.833,121.333 L332.833,121.333 L331.148,144.892 L329.463,154.565 L327.778,161.93 L326.093,168.09 L324.407,173.473 L322.722,178.302 L321.037,182.706 L319.352,186.771 L317.667,190.558 L315.981,194.109 L314.296,197.458 L312.611,200.63 L310.926,203.646 L309.241,206.522 L307.556,209.272 L305.87,211.908 L304.185,214.438 L302.5,216.872 L300.815,219.217 L299.13,221.479 L297.444,223.664 L295.759,225.776 L294.074,227.819 L292.389,229.798 L290.704,231.716 L289.019,233.576 L287.333,235.382 L285.648,237.134 L283.963,238.837 L282.278,240.492 L280.593,242.1 L278.907,243.665 L277.222,245.187 L275.537,246.668 L273.852,248.109 L272.167,249.513 L270.481,250.879 L268.796,252.209 L267.111,253.505 L265.426,254.768 L263.741,255.997 L262.056,257.195 L260.37,258.361 L258.685,259.497 L257,260.604 L255.315,261.682 L253.63,262.732 L251.944,263.755 L250.259,264.75 L248.574,265.719 L246.889,266.662 L245.204,267.58 L243.519,268.473 L241.833,269.342 L240.148,270.186 L238.463,271.008 L236.778,271.805 L235.093,272.58 L233.407,273.333 L231.722,274.063 L230.037,274.772 L228.352,275.459 L226.667,276.124 L224.981,276.769 L223.296,277.393 L221.611,277.997 L219.926,278.58 L218.241,279.143 L216.556,279.687 L214.87,280.211 L213.185,280.716 L211.5,281.201 L209.815,281.667 L208.13,282.115 L206.444,282.543 L204.759,282.953 L203.074,283.345 L201.389,283.719 L199.704,284.074 L198.019,284.411 L196.333,284.73 L194.648,285.032 L192.963,285.316 L191.278,285.582 L189.593,285.83 L187.907,286.061 L186.222,286.275 L184.537,286.471 L182.852,286.65 L181.167,286.812 L179.481,286.957 L177.796,287.084 L176.111,287.195 L174.426,287.288 L172.741,287.364 L171.056,287.424 L169.37,287.466 L167.685,287.492 L166,287.5 L166,287.5 L166,287.5 L142.465,285.822 L132.802,284.143 L125.444,282.465 L119.291,280.786 L113.912,279.108 L109.089,277.429 L104.689,275.751 L100.628,274.072 L96.845,272.394 L93.297,270.715 L89.952,269.037 L86.783,267.359 L83.77,265.68 L80.897,264.002 L78.15,262.323 L75.517,260.645 L72.989,258.966 L70.557,257.288 L68.214,255.609 L65.954,253.931 L63.772,252.253 L61.662,250.574 L59.621,248.896 L57.644,247.217 L55.728,245.539 L53.869,243.86 L52.066,242.182 L50.315,240.503 L48.614,238.825 L46.961,237.146 L45.354,235.468 L43.791,233.79 L42.271,232.111 L40.791,230.433 L39.351,228.754 L37.949,227.076 L36.584,225.397 L35.255,223.719 L33.961,222.04 L32.7,220.362 L31.471,218.684 L30.275,217.005 L29.11,215.327 L27.974,213.648 L26.869,211.97 L25.792,210.291 L24.743,208.613 L23.722,206.934 L22.727,205.256 L21.759,203.577 L20.817,201.899 L19.9,200.221 L19.008,198.542 L18.14,196.864 L17.296,195.185 L16.476,193.507 L15.679,191.828 L14.905,190.15 L14.153,188.471 L13.423,186.793 L12.716,185.114 L12.029,183.436 L11.364,181.758 L10.72,180.079 L10.097,178.401 L9.494,176.722 L8.911,175.044 L8.348,173.365 L7.805,171.687 L7.282,170.008 L6.778,168.33 L6.293,166.652 L5.827,164.973 L5.38,163.295 L4.952,161.616 L4.542,159.938 L4.151,158.259 L3.778,156.581 L3.423,154.902 L3.086,153.224 L2.767,151.545 L2.466,149.867 L2.182,148.189 L1.916,146.51 L1.668,144.832 L1.437,143.153 L1.224,141.475 L1.028,139.796 L0.849,138.118 L0.687,136.439 L0.543,134.761 L0.415,133.082 L0.305,131.404 L0.212,129.726 L0.136,128.047 L0.076,126.369 L0.034,124.69 L0.008,123.012 L0,121.333 L0,121.333 L0,121.333 L0.13,122.169 L0.267,123.022 L0.413,123.893 L0.566,124.783 L0.729,125.694 L0.902,126.627 L1.085,127.584 L1.279,128.568 L1.486,129.58 L1.707,130.623 L1.942,131.701 L2.195,132.818 L2.467,133.978 L2.76,135.187 L3.077,136.452 L3.423,137.783 L3.802,139.19 L4.222,140.69 L4.692,142.306 L5.227,144.069 L5.85,146.034 L6.602,148.296 L7.574,151.061 L9.077,155.042 L11.303,160.41 L34.925,198.521 L47.886,212.204 L59.015,221.688 L69.162,228.925 L78.661,234.675 L87.683,239.334 L96.331,243.136 L104.673,246.235 L112.755,248.738 L120.61,250.724 L128.266,252.252 L135.741,253.366 L143.052,254.103 L150.211,254.492 L157.227,254.555 L164.11,254.312 L170.866,253.778 L177.501,252.967 L184.019,251.888 L190.424,250.55 L196.719,248.959 L202.906,247.121 L208.986,245.04 L214.962,242.718 L220.832,240.155 L226.598,237.353 L232.259,234.31 L237.814,231.023 L243.26,227.489 L248.597,223.703 L253.82,219.657 L258.927,215.344 L263.912,210.753 L268.77,205.872 L273.495,200.684 L278.078,195.171 L282.509,189.309 L286.775,183.07 L290.86,176.418 L294.746,169.308 L298.406,161.68 L301.805,153.456 L304.899,144.53 L307.618,134.747 L309.86,123.872 L311.454,111.511 L312.067,96.902 L310.848,78.095 L298.967,34.859 L295.483,27.415 L293.926,24.386 L292.687,22.085 L291.612,20.16 L290.642,18.476 L289.747,16.963 L288.909,15.581 L288.116,14.302 L287.36,13.107 L286.634,11.983 L285.935,10.919 L285.259,9.907 L284.603,8.942 L283.964,8.017 L283.342,7.129 L282.734,6.273 L282.139,5.448 L281.556,4.65 L280.983,3.877 L280.422,3.127 L279.869,2.399 L279.325,1.691 L278.789,1.002 L278.261,0.33 L278,0 L278,0 z" stroke-width="0" stroke-dasharray="none"/></g></g></g></g></g></g><g width="277.5" height="276.5" transform="scale(1,1) translate(587,221)"><g width="277.5" height="276.5" transform="scale(1,1) translate(0,0)" stroke="#FFFFFF" stroke-width="0" stroke-dasharray="none" fill="none" stroke-opacity="1"><ellipse rx="138.75" ry="138.25" cx="138.75" cy="138.25"/></g><g width="176.16666666666666" height="175.5" transform="scale(1,1) translate(50.667,50.5)"><text width="176.16666666666666" height="130.33853721618652" transform="scale(1,1) translate(0,22.58073139190674)" xml:space="preserve"><tspan xml:space="preserve" text-rendering="optimizeSpeed" style="font-family: Arial, Helvetica Neue, Helvetica, sans-serif;" font-size="33.333333333333336" font-weight="bold" font-style="normal" text-decoration="none" fill="#FFFFFF" opacity="1" x="10.308" text-anchor="start" y="30.176" textLength="146.2890625"> DOMINO</tspan><tspan xml:space="preserve" text-rendering="optimizeSpeed" style="font-family: Arial, Helvetica Neue, Helvetica, sans-serif;" font-size="33.333333333333336" font-weight="bold" font-style="normal" text-decoration="none" fill="#FFFFFF" opacity="1" x="42.698" text-anchor="start" y="67.415" textLength="90.771484375">KEEP</tspan><tspan xml:space="preserve" text-rendering="optimizeSpeed" style="font-family: Arial, Helvetica Neue, Helvetica, sans-serif;" font-size="16.666666666666668" font-weight="bold" font-style="normal" text-decoration="none" fill="#FFFFFF" opacity="1" x="4.738" text-anchor="start" y="108.187" textLength="162.060546875">What makes it worth</tspan><tspan xml:space="preserve" text-rendering="optimizeSpeed" style="font-family: Arial, Helvetica Neue, Helvetica, sans-serif;" font-size="16.666666666666668" font-weight="bold" font-style="normal" text-decoration="none" fill="#FFFFFF" opacity="1" x="18.625" text-anchor="start" y="126.807" textLength="138.916015625">your investment?</tspan></text></g></g><g width="425.333" height="74.833" transform="scale(1,1) translate(97.5,134.333)"><g transform="scale(1,1) translate(0,0)" stroke="#78CED7" fill="#FADA7A" fill-opacity="1" stroke-opacity="0"><path d="M37,0 L28.675,0.949 L25.303,1.897 L22.769,2.846 L20.678,3.795 L18.875,4.744 L17.281,5.692 L15.85,6.641 L14.549,7.59 L13.358,8.538 L12.26,9.487 L11.244,10.436 L10.301,11.385 L9.422,12.333 L8.602,13.282 L7.836,14.231 L7.119,15.179 L6.449,16.128 L5.822,17.077 L5.236,18.026 L4.688,18.974 L4.177,19.923 L3.7,20.872 L3.257,21.821 L2.846,22.769 L2.466,23.718 L2.116,24.667 L1.795,25.615 L1.502,26.564 L1.237,27.513 L0.999,28.462 L0.787,29.41 L0.601,30.359 L0.44,31.308 L0.305,32.256 L0.195,33.205 L0.11,34.154 L0.049,35.103 L0.012,36.051 L0,37 L0,37.833 L0.012,38.782 L0.049,39.731 L0.11,40.679 L0.195,41.628 L0.305,42.577 L0.44,43.526 L0.601,44.474 L0.787,45.423 L0.999,46.372 L1.237,47.321 L1.502,48.269 L1.795,49.218 L2.116,50.167 L2.466,51.115 L2.846,52.064 L3.257,53.013 L3.7,53.962 L4.177,54.91 L4.688,55.859 L5.236,56.808 L5.822,57.756 L6.449,58.705 L7.119,59.654 L7.836,60.603 L8.602,61.551 L9.422,62.5 L10.301,63.449 L11.244,64.397 L12.26,65.346 L13.358,66.295 L14.549,67.244 L15.85,68.192 L17.281,69.141 L18.875,70.09 L20.678,71.038 L22.769,71.987 L25.303,72.936 L28.675,73.885 L37,74.833 L388.333,74.833 L396.658,73.885 L400.03,72.936 L402.564,71.987 L404.656,71.038 L406.459,70.09 L408.052,69.141 L409.484,68.192 L410.784,67.244 L411.975,66.295 L413.073,65.346 L414.089,64.397 L415.033,63.449 L415.912,62.5 L416.732,61.551 L417.498,60.603 L418.214,59.654 L418.884,58.705 L419.511,57.756 L420.098,56.808 L420.646,55.859 L421.157,54.91 L421.633,53.962 L422.076,53.013 L422.487,52.064 L422.867,51.115 L423.217,50.167 L423.538,49.218 L423.831,48.269 L424.096,47.321 L424.335,46.372 L424.547,45.423 L424.732,44.474 L424.893,43.526 L425.028,42.577 L425.138,41.628 L425.224,40.679 L425.285,39.731 L425.321,38.782 L425.333,37.833 L425.333,37 L425.321,36.051 L425.285,35.103 L425.224,34.154 L425.138,33.205 L425.028,32.256 L424.893,31.308 L424.732,30.359 L424.547,29.41 L424.335,28.462 L424.096,27.513 L423.831,26.564 L423.538,25.615 L423.217,24.667 L422.867,23.718 L422.487,22.769 L422.076,21.821 L421.633,20.872 L421.157,19.923 L420.646,18.974 L420.098,18.026 L419.511,17.077 L418.884,16.128 L418.214,15.179 L417.498,14.231 L416.732,13.282 L415.912,12.333 L415.033,11.385 L414.089,10.436 L413.073,9.487 L411.975,8.538 L410.784,7.59 L409.484,6.641 L408.052,5.692 L406.459,4.744 L404.656,3.795 L402.564,2.846 L400.03,1.897 L396.658,0.949 L388.333,0 L37,0 z" stroke-width="1" stroke-dasharray="none"/></g><g width="290.16666666666663" height="42.166666666666664" transform="scale(1,1) translate(67.667,16.333)"><text width="290.16666666666663" height="18.61979103088379" transform="scale(1,1) translate(0,11.773437817891438)" xml:space="preserve"><tspan xml:space="preserve" text-rendering="optimizeSpeed" style="font-family: Arial, Helvetica Neue, Helvetica, sans-serif;" font-size="16.666666666666668" font-weight="bold" font-style="normal" text-decoration="none" fill="#FFFFFF" opacity="1" x="13.573" text-anchor="start" y="15.088" textLength="263.02081298828125">Public API based on OpenAPI 3.0</tspan></text></g></g><g width="425.333" height="74.833" transform="scale(1,1) translate(96.5,460.667)"><g transform="scale(1,1) translate(0,0)" stroke="#78CED7" fill="#A5A5A5" fill-opacity="1" stroke-opacity="0"><path d="M37,0 L28.675,0.949 L25.303,1.897 L22.769,2.846 L20.678,3.795 L18.875,4.744 L17.281,5.692 L15.85,6.641 L14.549,7.59 L13.358,8.538 L12.26,9.487 L11.244,10.436 L10.301,11.385 L9.422,12.333 L8.602,13.282 L7.836,14.231 L7.119,15.179 L6.449,16.128 L5.822,17.077 L5.236,18.026 L4.688,18.974 L4.177,19.923 L3.7,20.872 L3.257,21.821 L2.846,22.769 L2.466,23.718 L2.116,24.667 L1.795,25.615 L1.502,26.564 L1.237,27.513 L0.999,28.462 L0.787,29.41 L0.601,30.359 L0.44,31.308 L0.305,32.256 L0.195,33.205 L0.11,34.154 L0.049,35.103 L0.012,36.051 L0,37 L0,37.833 L0.012,38.782 L0.049,39.731 L0.11,40.679 L0.195,41.628 L0.305,42.577 L0.44,43.526 L0.601,44.474 L0.787,45.423 L0.999,46.372 L1.237,47.321 L1.502,48.269 L1.795,49.218 L2.116,50.167 L2.466,51.115 L2.846,52.064 L3.257,53.013 L3.7,53.962 L4.177,54.91 L4.688,55.859 L5.236,56.808 L5.822,57.756 L6.449,58.705 L7.119,59.654 L7.836,60.603 L8.602,61.551 L9.422,62.5 L10.301,63.449 L11.244,64.397 L12.26,65.346 L13.358,66.295 L14.549,67.244 L15.85,68.192 L17.281,69.141 L18.875,70.09 L20.678,71.038 L22.769,71.987 L25.303,72.936 L28.675,73.885 L37,74.833 L388.333,74.833 L396.658,73.885 L400.03,72.936 L402.564,71.987 L404.656,71.038 L406.459,70.09 L408.052,69.141 L409.484,68.192 L410.784,67.244 L411.975,66.295 L413.073,65.346 L414.089,64.397 L415.033,63.449 L415.912,62.5 L416.732,61.551 L417.498,60.603 L418.214,59.654 L418.884,58.705 L419.511,57.756 L420.098,56.808 L420.646,55.859 L421.157,54.91 L421.633,53.962 L422.076,53.013 L422.487,52.064 L422.867,51.115 L423.217,50.167 L423.538,49.218 L423.831,48.269 L424.096,47.321 L424.335,46.372 L424.547,45.423 L424.732,44.474 L424.893,43.526 L425.028,42.577 L425.138,41.628 L425.224,40.679 L425.285,39.731 L425.321,38.782 L425.333,37.833 L425.333,37 L425.321,36.051 L425.285,35.103 L425.224,34.154 L425.138,33.205 L425.028,32.256 L424.893,31.308 L424.732,30.359 L424.547,29.41 L424.335,28.462 L424.096,27.513 L423.831,26.564 L423.538,25.615 L423.217,24.667 L422.867,23.718 L422.487,22.769 L422.076,21.821 L421.633,20.872 L421.157,19.923 L420.646,18.974 L420.098,18.026 L419.511,17.077 L418.884,16.128 L418.214,15.179 L417.498,14.231 L416.732,13.282 L415.912,12.333 L415.033,11.385 L414.089,10.436 L413.073,9.487 L411.975,8.538 L410.784,7.59 L409.484,6.641 L408.052,5.692 L406.459,4.744 L404.656,3.795 L402.564,2.846 L400.03,1.897 L396.658,0.949 L388.333,0 L37,0 z" stroke-width="1" stroke-dasharray="none"/></g><g width="290.16666666666663" height="42.166666666666664" transform="scale(1,1) translate(67.5,16.333)"><text width="290.16666666666663" height="18.61979103088379" transform="scale(1,1) translate(0,11.773437817891438)" xml:space="preserve"><tspan xml:space="preserve" text-rendering="optimizeSpeed" style="font-family: Arial, Helvetica Neue, Helvetica, sans-serif;" font-size="16.666666666666668" font-weight="bold" font-style="normal" text-decoration="none" fill="#FFFFFF" opacity="1" x="117.288" text-anchor="start" y="15.088" textLength="55.590816497802734">Secure</tspan></text></g></g><g width="425.333" height="74.833" transform="scale(1,1) translate(98.333,540.833)"><g transform="scale(1,1) translate(0,0)" stroke="#78CED7" fill="#F79646" fill-opacity="1" stroke-opacity="0"><path d="M37,0 L28.675,0.949 L25.303,1.897 L22.769,2.846 L20.678,3.795 L18.875,4.744 L17.281,5.692 L15.85,6.641 L14.549,7.59 L13.358,8.538 L12.26,9.487 L11.244,10.436 L10.301,11.385 L9.422,12.333 L8.602,13.282 L7.836,14.231 L7.119,15.179 L6.449,16.128 L5.822,17.077 L5.236,18.026 L4.688,18.974 L4.177,19.923 L3.7,20.872 L3.257,21.821 L2.846,22.769 L2.466,23.718 L2.116,24.667 L1.795,25.615 L1.502,26.564 L1.237,27.513 L0.999,28.462 L0.787,29.41 L0.601,30.359 L0.44,31.308 L0.305,32.256 L0.195,33.205 L0.11,34.154 L0.049,35.103 L0.012,36.051 L0,37 L0,37.833 L0.012,38.782 L0.049,39.731 L0.11,40.679 L0.195,41.628 L0.305,42.577 L0.44,43.526 L0.601,44.474 L0.787,45.423 L0.999,46.372 L1.237,47.321 L1.502,48.269 L1.795,49.218 L2.116,50.167 L2.466,51.115 L2.846,52.064 L3.257,53.013 L3.7,53.962 L4.177,54.91 L4.688,55.859 L5.236,56.808 L5.822,57.756 L6.449,58.705 L7.119,59.654 L7.836,60.603 L8.602,61.551 L9.422,62.5 L10.301,63.449 L11.244,64.397 L12.26,65.346 L13.358,66.295 L14.549,67.244 L15.85,68.192 L17.281,69.141 L18.875,70.09 L20.678,71.038 L22.769,71.987 L25.303,72.936 L28.675,73.885 L37,74.833 L388.333,74.833 L396.658,73.885 L400.03,72.936 L402.564,71.987 L404.656,71.038 L406.459,70.09 L408.052,69.141 L409.484,68.192 L410.784,67.244 L411.975,66.295 L413.073,65.346 L414.089,64.397 L415.033,63.449 L415.912,62.5 L416.732,61.551 L417.498,60.603 L418.214,59.654 L418.884,58.705 L419.511,57.756 L420.098,56.808 L420.646,55.859 L421.157,54.91 L421.633,53.962 L422.076,53.013 L422.487,52.064 L422.867,51.115 L423.217,50.167 L423.538,49.218 L423.831,48.269 L424.096,47.321 L424.335,46.372 L424.547,45.423 L424.732,44.474 L424.893,43.526 L425.028,42.577 L425.138,41.628 L425.224,40.679 L425.285,39.731 L425.321,38.782 L425.333,37.833 L425.333,37 L425.321,36.051 L425.285,35.103 L425.224,34.154 L425.138,33.205 L425.028,32.256 L424.893,31.308 L424.732,30.359 L424.547,29.41 L424.335,28.462 L424.096,27.513 L423.831,26.564 L423.538,25.615 L423.217,24.667 L422.867,23.718 L422.487,22.769 L422.076,21.821 L421.633,20.872 L421.157,19.923 L420.646,18.974 L420.098,18.026 L419.511,17.077 L418.884,16.128 L418.214,15.179 L417.498,14.231 L416.732,13.282 L415.912,12.333 L415.033,11.385 L414.089,10.436 L413.073,9.487 L411.975,8.538 L410.784,7.59 L409.484,6.641 L408.052,5.692 L406.459,4.744 L404.656,3.795 L402.564,2.846 L400.03,1.897 L396.658,0.949 L388.333,0 L37,0 z" stroke-width="1" stroke-dasharray="none"/></g><g width="290" height="42.166666666666664" transform="scale(1,1) translate(67.667,16.333)"><text width="290" height="18.61979103088379" transform="scale(1,1) translate(0,11.773437817891438)" xml:space="preserve"><tspan xml:space="preserve" text-rendering="optimizeSpeed" style="font-family: Arial, Helvetica Neue, Helvetica, sans-serif;" font-size="16.666666666666668" font-weight="bold" font-style="normal" text-decoration="none" fill="#FFFFFF" opacity="1" x="64.893" text-anchor="start" y="15.088" textLength="160.2132110595703">Low Barrier to Entry</tspan></text></g></g></g></svg>
