<?xml version="1.0" encoding="UTF-8" standalone="no"?><svg xmlns="http://www.w3.org/2000/svg" xmlns:xlink="http://www.w3.org/1999/xlink" contentScriptType="application/ecmascript" contentStyleType="text/css" height="822px" preserveAspectRatio="none" style="width:1335px;height:822px;" version="1.1" viewBox="0 0 1335 822" width="1335px" zoomAndPan="magnify"><defs><filter height="300%" id="f183qkvrwixe7p" width="300%" x="-1" y="-1"><feGaussianBlur result="blurOut" stdDeviation="2.0"/><feColorMatrix in="blurOut" result="blurOut2" type="matrix" values="0 0 0 0 0 0 0 0 0 0 0 0 0 0 0 0 0 0 .4 0"/><feOffset dx="4.0" dy="4.0" in="blurOut2" result="blurOut3"/><feBlend in="SourceGraphic" in2="blurOut3" mode="normal"/></filter></defs><g><text fill="#000000" font-family="sans-serif" font-size="18" lengthAdjust="spacingAndGlyphs" textLength="163" x="584.25" y="29.4023">Domino Keep Flow</text><rect fill="#FFFFFF" filter="url(#f183qkvrwixe7p)" height="75.9316" style="stroke:#000000;stroke-width:2.0;" width="388" x="10" y="140.6875"/><rect fill="#FFFFFF" filter="url(#f183qkvrwixe7p)" height="193.1738" style="stroke:#000000;stroke-width:2.0;" width="633" x="305" y="230.6191"/><rect fill="#FFFFFF" filter="url(#f183qkvrwixe7p)" height="75.9316" style="stroke:#000000;stroke-width:2.0;" width="502.5" x="819" y="437.793"/><rect fill="#FFFFFF" filter="url(#f183qkvrwixe7p)" height="193.1738" style="stroke:#000000;stroke-width:2.0;" width="1311.5" x="10" y="527.7246"/><line style="stroke:#A80036;stroke-width:1.0;stroke-dasharray:5.0,5.0;" x1="38" x2="38" y1="123.6875" y2="737.8984"/><line style="stroke:#A80036;stroke-width:1.0;stroke-dasharray:5.0,5.0;" x1="225.5" x2="225.5" y1="123.6875" y2="737.8984"/><line style="stroke:#A80036;stroke-width:1.0;stroke-dasharray:5.0,5.0;" x1="351" x2="351" y1="123.6875" y2="737.8984"/><line style="stroke:#A80036;stroke-width:1.0;stroke-dasharray:5.0,5.0;" x1="476.5" x2="476.5" y1="123.6875" y2="737.8984"/><line style="stroke:#A80036;stroke-width:1.0;stroke-dasharray:5.0,5.0;" x1="677" x2="677" y1="123.6875" y2="737.8984"/><line style="stroke:#A80036;stroke-width:1.0;stroke-dasharray:5.0,5.0;" x1="878" x2="878" y1="123.6875" y2="737.8984"/><line style="stroke:#A80036;stroke-width:1.0;stroke-dasharray:5.0,5.0;" x1="1028.5" x2="1028.5" y1="123.6875" y2="737.8984"/><line style="stroke:#A80036;stroke-width:1.0;stroke-dasharray:5.0,5.0;" x1="1154" x2="1154" y1="123.6875" y2="737.8984"/><line style="stroke:#A80036;stroke-width:1.0;stroke-dasharray:5.0,5.0;" x1="1281.5" x2="1281.5" y1="123.6875" y2="737.8984"/><text fill="#000000" font-family="sans-serif" font-size="14" lengthAdjust="spacingAndGlyphs" textLength="31" x="20" y="120.7344">User</text><ellipse cx="38.5" cy="50.1992" fill="#FEFECE" filter="url(#f183qkvrwixe7p)" rx="8" ry="8" style="stroke:#A80036;stroke-width:2.0;"/><path d="M38.5,58.1992 L38.5,85.1992 M25.5,66.1992 L51.5,66.1992 M38.5,85.1992 L25.5,100.1992 M38.5,85.1992 L51.5,100.1992 " fill="none" filter="url(#f183qkvrwixe7p)" style="stroke:#A80036;stroke-width:2.0;"/><text fill="#000000" font-family="sans-serif" font-size="14" lengthAdjust="spacingAndGlyphs" textLength="31" x="20" y="750.4336">User</text><ellipse cx="38.5" cy="763.3867" fill="#FEFECE" filter="url(#f183qkvrwixe7p)" rx="8" ry="8" style="stroke:#A80036;stroke-width:2.0;"/><path d="M38.5,771.3867 L38.5,798.3867 M25.5,779.3867 L51.5,779.3867 M38.5,798.3867 L25.5,813.3867 M38.5,798.3867 L51.5,813.3867 " fill="none" filter="url(#f183qkvrwixe7p)" style="stroke:#A80036;stroke-width:2.0;"/><rect fill="#FEFECE" filter="url(#f183qkvrwixe7p)" height="46.9766" style="stroke:#A80036;stroke-width:1.5;" width="68" x="189.5" y="71.7109"/><text fill="#000000" font-family="sans-serif" font-size="14" lengthAdjust="spacingAndGlyphs" textLength="28" x="209.5" y="92.2461">http</text><text fill="#000000" font-family="sans-serif" font-size="14" lengthAdjust="spacingAndGlyphs" textLength="54" x="196.5" y="108.7344">Listener</text><rect fill="#FEFECE" filter="url(#f183qkvrwixe7p)" height="46.9766" style="stroke:#A80036;stroke-width:1.5;" width="68" x="189.5" y="736.8984"/><text fill="#000000" font-family="sans-serif" font-size="14" lengthAdjust="spacingAndGlyphs" textLength="28" x="209.5" y="757.4336">http</text><text fill="#000000" font-family="sans-serif" font-size="14" lengthAdjust="spacingAndGlyphs" textLength="54" x="196.5" y="773.9219">Listener</text><text fill="#000000" font-family="sans-serif" font-size="14" lengthAdjust="spacingAndGlyphs" textLength="67" x="315" y="120.7344">JWTCheck</text><path d="M331,79.1992 L331,103.1992 M331,91.1992 L348,91.1992 " fill="none" filter="url(#f183qkvrwixe7p)" style="stroke:#A80036;stroke-width:2.0;"/><ellipse cx="360" cy="91.1992" fill="#FEFECE" filter="url(#f183qkvrwixe7p)" rx="12" ry="12" style="stroke:#A80036;stroke-width:2.0;"/><text fill="#000000" font-family="sans-serif" font-size="14" lengthAdjust="spacingAndGlyphs" textLength="67" x="315" y="750.4336">JWTCheck</text><path d="M331,757.3867 L331,781.3867 M331,769.3867 L348,769.3867 " fill="none" filter="url(#f183qkvrwixe7p)" style="stroke:#A80036;stroke-width:2.0;"/><ellipse cx="360" cy="769.3867" fill="#FEFECE" filter="url(#f183qkvrwixe7p)" rx="12" ry="12" style="stroke:#A80036;stroke-width:2.0;"/><rect fill="#FEFECE" filter="url(#f183qkvrwixe7p)" height="30.4883" style="stroke:#A80036;stroke-width:1.5;" width="68" x="442.5" y="84.1992"/><rect fill="#FEFECE" filter="url(#f183qkvrwixe7p)" height="30.4883" style="stroke:#A80036;stroke-width:1.5;" width="68" x="438.5" y="88.1992"/><text fill="#000000" font-family="sans-serif" font-size="14" lengthAdjust="spacingAndGlyphs" textLength="54" x="445.5" y="108.7344">Handler</text><rect fill="#FEFECE" filter="url(#f183qkvrwixe7p)" height="30.4883" style="stroke:#A80036;stroke-width:1.5;" width="68" x="442.5" y="736.8984"/><rect fill="#FEFECE" filter="url(#f183qkvrwixe7p)" height="30.4883" style="stroke:#A80036;stroke-width:1.5;" width="68" x="438.5" y="740.8984"/><text fill="#000000" font-family="sans-serif" font-size="14" lengthAdjust="spacingAndGlyphs" textLength="54" x="445.5" y="761.4336">Handler</text><path d="M642,97.1992 L713,97.1992 C718,97.1992 718,110.4434 718,110.4434 C718,110.4434 718,123.6875 713,123.6875 L642,123.6875 C637,123.6875 637,110.4434 637,110.4434 C637,110.4434 637,97.1992 642,97.1992 " fill="#FEFECE" filter="url(#f183qkvrwixe7p)" style="stroke:#A80036;stroke-width:2.0;"/><path d="M713,97.1992 C708,97.1992 708,110.4434 708,110.4434 C708,123.6875 713,123.6875 713,123.6875 " fill="none" style="stroke:#A80036;stroke-width:2.0;"/><text fill="#000000" font-family="sans-serif" font-size="14" lengthAdjust="spacingAndGlyphs" textLength="61" x="642" y="115.7344">EventBus</text><path d="M642,736.8984 L713,736.8984 C718,736.8984 718,750.1426 718,750.1426 C718,750.1426 718,763.3867 713,763.3867 L642,763.3867 C637,763.3867 637,750.1426 637,750.1426 C637,750.1426 637,736.8984 642,736.8984 " fill="#FEFECE" filter="url(#f183qkvrwixe7p)" style="stroke:#A80036;stroke-width:2.0;"/><path d="M713,736.8984 C708,736.8984 708,750.1426 708,750.1426 C708,763.3867 713,763.3867 713,763.3867 " fill="none" style="stroke:#A80036;stroke-width:2.0;"/><text fill="#000000" font-family="sans-serif" font-size="14" lengthAdjust="spacingAndGlyphs" textLength="61" x="642" y="755.4336">EventBus</text><rect fill="#FEFECE" filter="url(#f183qkvrwixe7p)" height="30.4883" style="stroke:#A80036;stroke-width:1.5;" width="91" x="833" y="84.1992"/><rect fill="#FEFECE" filter="url(#f183qkvrwixe7p)" height="30.4883" style="stroke:#A80036;stroke-width:1.5;" width="91" x="829" y="88.1992"/><text fill="#000000" font-family="sans-serif" font-size="14" lengthAdjust="spacingAndGlyphs" textLength="77" x="836" y="108.7344">DbVerticles</text><rect fill="#FEFECE" filter="url(#f183qkvrwixe7p)" height="30.4883" style="stroke:#A80036;stroke-width:1.5;" width="91" x="833" y="736.8984"/><rect fill="#FEFECE" filter="url(#f183qkvrwixe7p)" height="30.4883" style="stroke:#A80036;stroke-width:1.5;" width="91" x="829" y="740.8984"/><text fill="#000000" font-family="sans-serif" font-size="14" lengthAdjust="spacingAndGlyphs" textLength="77" x="836" y="761.4336">DbVerticles</text><rect fill="#FEFECE" filter="url(#f183qkvrwixe7p)" height="30.4883" style="stroke:#A80036;stroke-width:1.5;" width="88" x="984.5" y="84.1992"/><rect fill="#FEFECE" filter="url(#f183qkvrwixe7p)" height="30.4883" style="stroke:#A80036;stroke-width:1.5;" width="88" x="980.5" y="88.1992"/><text fill="#000000" font-family="sans-serif" font-size="14" lengthAdjust="spacingAndGlyphs" textLength="74" x="987.5" y="108.7344">DbRequest</text><rect fill="#FEFECE" filter="url(#f183qkvrwixe7p)" height="30.4883" style="stroke:#A80036;stroke-width:1.5;" width="88" x="984.5" y="736.8984"/><rect fill="#FEFECE" filter="url(#f183qkvrwixe7p)" height="30.4883" style="stroke:#A80036;stroke-width:1.5;" width="88" x="980.5" y="740.8984"/><text fill="#000000" font-family="sans-serif" font-size="14" lengthAdjust="spacingAndGlyphs" textLength="74" x="987.5" y="761.4336">DbRequest</text><text fill="#000000" font-family="sans-serif" font-size="14" lengthAdjust="spacingAndGlyphs" textLength="85" x="1109" y="120.7344">TheBarbican</text><ellipse cx="1154.5" cy="91.1992" fill="#FEFECE" filter="url(#f183qkvrwixe7p)" rx="12" ry="12" style="stroke:#A80036;stroke-width:2.0;"/><polygon fill="#A80036" points="1150.5,79.1992,1156.5,74.1992,1154.5,79.1992,1156.5,84.1992,1150.5,79.1992" style="stroke:#A80036;stroke-width:1.0;"/><text fill="#000000" font-family="sans-serif" font-size="14" lengthAdjust="spacingAndGlyphs" textLength="85" x="1109" y="750.4336">TheBarbican</text><ellipse cx="1154.5" cy="769.3867" fill="#FEFECE" filter="url(#f183qkvrwixe7p)" rx="12" ry="12" style="stroke:#A80036;stroke-width:2.0;"/><polygon fill="#A80036" points="1150.5,757.3867,1156.5,752.3867,1154.5,757.3867,1156.5,762.3867,1150.5,757.3867" style="stroke:#A80036;stroke-width:1.0;"/><text fill="#000000" font-family="sans-serif" font-size="14" lengthAdjust="spacingAndGlyphs" textLength="54" x="1251.5" y="120.7344">Domino</text><path d="M1263.5,71.1992 C1263.5,61.1992 1281.5,61.1992 1281.5,61.1992 C1281.5,61.1992 1299.5,61.1992 1299.5,71.1992 L1299.5,97.1992 C1299.5,107.1992 1281.5,107.1992 1281.5,107.1992 C1281.5,107.1992 1263.5,107.1992 1263.5,97.1992 L1263.5,71.1992 " fill="#FEFECE" filter="url(#f183qkvrwixe7p)" style="stroke:#000000;stroke-width:1.5;"/><path d="M1263.5,71.1992 C1263.5,81.1992 1281.5,81.1992 1281.5,81.1992 C1281.5,81.1992 1299.5,81.1992 1299.5,71.1992 " fill="none" style="stroke:#000000;stroke-width:1.5;"/><text fill="#000000" font-family="sans-serif" font-size="14" lengthAdjust="spacingAndGlyphs" textLength="54" x="1251.5" y="750.4336">Domino</text><path d="M1263.5,763.3867 C1263.5,753.3867 1281.5,753.3867 1281.5,753.3867 C1281.5,753.3867 1299.5,753.3867 1299.5,763.3867 L1299.5,789.3867 C1299.5,799.3867 1281.5,799.3867 1281.5,799.3867 C1281.5,799.3867 1263.5,799.3867 1263.5,789.3867 L1263.5,763.3867 " fill="#FEFECE" filter="url(#f183qkvrwixe7p)" style="stroke:#000000;stroke-width:1.5;"/><path d="M1263.5,763.3867 C1263.5,773.3867 1281.5,773.3867 1281.5,773.3867 C1281.5,773.3867 1299.5,773.3867 1299.5,763.3867 " fill="none" style="stroke:#000000;stroke-width:1.5;"/><path d="M10,140.6875 L120,140.6875 L120,147.6875 L110,157.6875 L10,157.6875 L10,140.6875 " fill="#EEEEEE" style="stroke:#000000;stroke-width:1.0;"/><rect fill="none" height="75.9316" style="stroke:#000000;stroke-width:2.0;" width="388" x="10" y="140.6875"/><text fill="#000000" font-family="sans-serif" font-size="13" font-weight="bold" lengthAdjust="spacingAndGlyphs" textLength="65" x="25" y="154.2559">web front</text><polygon fill="#A80036" points="213.5,175.3086,223.5,179.3086,213.5,183.3086,217.5,179.3086" style="stroke:#A80036;stroke-width:1.0;"/><line style="stroke:#A80036;stroke-width:1.0;" x1="38.5" x2="219.5" y1="179.3086" y2="179.3086"/><text fill="#000000" font-family="sans-serif" font-size="13" font-weight="bold" lengthAdjust="spacingAndGlyphs" textLength="9" x="45.5" y="174.5664">1</text><text fill="#000000" font-family="sans-serif" font-size="13" lengthAdjust="spacingAndGlyphs" textLength="150" x="58.5" y="174.5664">GET, POST, PUT, DELETE</text><polygon fill="#A80036" points="339.5,204.6191,349.5,208.6191,339.5,212.6191,343.5,208.6191" style="stroke:#A80036;stroke-width:1.0;"/><line style="stroke:#A80036;stroke-width:1.0;" x1="225.5" x2="345.5" y1="208.6191" y2="208.6191"/><text fill="#000000" font-family="sans-serif" font-size="13" font-weight="bold" lengthAdjust="spacingAndGlyphs" textLength="9" x="232.5" y="203.877">2</text><text fill="#000000" font-family="sans-serif" font-size="13" lengthAdjust="spacingAndGlyphs" textLength="89" x="245.5" y="203.877">identity check</text><path d="M305,230.6191 L477,230.6191 L477,237.6191 L467,247.6191 L305,247.6191 L305,230.6191 " fill="#EEEEEE" style="stroke:#000000;stroke-width:1.0;"/><rect fill="none" height="193.1738" style="stroke:#000000;stroke-width:2.0;" width="633" x="305" y="230.6191"/><text fill="#000000" font-family="sans-serif" font-size="13" font-weight="bold" lengthAdjust="spacingAndGlyphs" textLength="127" x="320" y="244.1875">Setup for response</text><polygon fill="#A80036" points="464.5,265.2402,474.5,269.2402,464.5,273.2402,468.5,269.2402" style="stroke:#A80036;stroke-width:1.0;"/><line style="stroke:#A80036;stroke-width:1.0;" x1="351.5" x2="470.5" y1="269.2402" y2="269.2402"/><text fill="#000000" font-family="sans-serif" font-size="13" font-weight="bold" lengthAdjust="spacingAndGlyphs" textLength="9" x="358.5" y="264.498">3</text><text fill="#000000" font-family="sans-serif" font-size="13" lengthAdjust="spacingAndGlyphs" textLength="88" x="371.5" y="264.498">request check</text><polygon fill="#A80036" points="665.5,294.5508,675.5,298.5508,665.5,302.5508,669.5,298.5508" style="stroke:#A80036;stroke-width:1.0;"/><line style="stroke:#A80036;stroke-width:1.0;" x1="476.5" x2="671.5" y1="298.5508" y2="298.5508"/><text fill="#000000" font-family="sans-serif" font-size="13" font-weight="bold" lengthAdjust="spacingAndGlyphs" textLength="9" x="483.5" y="293.8086">4</text><text fill="#000000" font-family="sans-serif" font-size="13" lengthAdjust="spacingAndGlyphs" textLength="105" x="496.5" y="293.8086">request dispatch</text><polygon fill="#A80036" points="866.5,323.8613,876.5,327.8613,866.5,331.8613,870.5,327.8613" style="stroke:#A80036;stroke-width:1.0;"/><line style="stroke:#A80036;stroke-width:1.0;" x1="677.5" x2="872.5" y1="327.8613" y2="327.8613"/><text fill="#000000" font-family="sans-serif" font-size="13" font-weight="bold" lengthAdjust="spacingAndGlyphs" textLength="9" x="684.5" y="323.1191">5</text><text fill="#000000" font-family="sans-serif" font-size="13" lengthAdjust="spacingAndGlyphs" textLength="100" x="697.5" y="323.1191">request delivery</text><polygon fill="#A80036" points="362.5,353.1719,352.5,357.1719,362.5,361.1719,358.5,357.1719" style="stroke:#A80036;stroke-width:1.0;"/><line style="stroke:#A80036;stroke-width:1.0;" x1="356.5" x2="877.5" y1="357.1719" y2="357.1719"/><text fill="#000000" font-family="sans-serif" font-size="13" font-weight="bold" lengthAdjust="spacingAndGlyphs" textLength="9" x="368.5" y="352.4297">6</text><text fill="#000000" font-family="sans-serif" font-size="13" lengthAdjust="spacingAndGlyphs" textLength="101" x="381.5" y="352.4297">identity check 2</text><polygon fill="#A80036" points="688.5,382.4824,678.5,386.4824,688.5,390.4824,684.5,386.4824" style="stroke:#A80036;stroke-width:1.0;"/><line style="stroke:#A80036;stroke-width:1.0;" x1="682.5" x2="877.5" y1="386.4824" y2="386.4824"/><text fill="#000000" font-family="sans-serif" font-size="13" font-weight="bold" lengthAdjust="spacingAndGlyphs" textLength="9" x="694.5" y="381.7402">7</text><text fill="#000000" font-family="sans-serif" font-size="13" lengthAdjust="spacingAndGlyphs" textLength="164" x="707.5" y="381.7402">request accnowledgement</text><polygon fill="#A80036" points="487.5,411.793,477.5,415.793,487.5,419.793,483.5,415.793" style="stroke:#A80036;stroke-width:1.0;"/><line style="stroke:#A80036;stroke-width:1.0;" x1="481.5" x2="676.5" y1="415.793" y2="415.793"/><text fill="#000000" font-family="sans-serif" font-size="13" font-weight="bold" lengthAdjust="spacingAndGlyphs" textLength="9" x="493.5" y="411.0508">8</text><text fill="#000000" font-family="sans-serif" font-size="13" lengthAdjust="spacingAndGlyphs" textLength="164" x="506.5" y="411.0508">request accnowledgement</text><path d="M819,437.793 L974,437.793 L974,444.793 L964,454.793 L819,454.793 L819,437.793 " fill="#EEEEEE" style="stroke:#000000;stroke-width:1.0;"/><rect fill="none" height="75.9316" style="stroke:#000000;stroke-width:2.0;" width="502.5" x="819" y="437.793"/><text fill="#000000" font-family="sans-serif" font-size="13" font-weight="bold" lengthAdjust="spacingAndGlyphs" textLength="110" x="834" y="451.3613">DominoJNX land</text><polygon fill="#A80036" points="1016.5,472.4141,1026.5,476.4141,1016.5,480.4141,1020.5,476.4141" style="stroke:#A80036;stroke-width:1.0;"/><line style="stroke:#A80036;stroke-width:1.0;" x1="878.5" x2="1022.5" y1="476.4141" y2="476.4141"/><text fill="#000000" font-family="sans-serif" font-size="13" font-weight="bold" lengthAdjust="spacingAndGlyphs" textLength="9" x="885.5" y="471.6719">9</text><text fill="#000000" font-family="sans-serif" font-size="13" lengthAdjust="spacingAndGlyphs" textLength="113" x="898.5" y="471.6719">request execution</text><polygon fill="#A80036" points="1269.5,501.7246,1279.5,505.7246,1269.5,509.7246,1273.5,505.7246" style="stroke:#A80036;stroke-width:1.0;"/><line style="stroke:#A80036;stroke-width:1.0;" x1="1028.5" x2="1275.5" y1="505.7246" y2="505.7246"/><text fill="#000000" font-family="sans-serif" font-size="13" font-weight="bold" lengthAdjust="spacingAndGlyphs" textLength="18" x="1035.5" y="500.9824">10</text><text fill="#000000" font-family="sans-serif" font-size="13" lengthAdjust="spacingAndGlyphs" textLength="73" x="1057.5" y="500.9824">data access</text><path d="M10,527.7246 L186,527.7246 L186,534.7246 L176,544.7246 L10,544.7246 L10,527.7246 " fill="#EEEEEE" style="stroke:#000000;stroke-width:1.0;"/><rect fill="none" height="193.1738" style="stroke:#000000;stroke-width:2.0;" width="1311.5" x="10" y="527.7246"/><text fill="#000000" font-family="sans-serif" font-size="13" font-weight="bold" lengthAdjust="spacingAndGlyphs" textLength="127" x="25" y="541.293">Chunked response</text><text fill="#000000" font-family="sans-serif" font-size="11" font-weight="bold" lengthAdjust="spacingAndGlyphs" textLength="226" x="201" y="540.3594">[Repeat as needed in 500 entrie batches]</text><polygon fill="#A80036" points="1165.5,562.3457,1155.5,566.3457,1165.5,570.3457,1161.5,566.3457" style="stroke:#A80036;stroke-width:1.0;"/><line style="stroke:#A80036;stroke-width:1.0;" x1="1159.5" x2="1280.5" y1="566.3457" y2="566.3457"/><text fill="#000000" font-family="sans-serif" font-size="13" font-weight="bold" lengthAdjust="spacingAndGlyphs" textLength="18" x="1171.5" y="561.6035">11</text><text fill="#000000" font-family="sans-serif" font-size="13" lengthAdjust="spacingAndGlyphs" textLength="81" x="1193.5" y="561.6035">data filtering</text><polygon fill="#A80036" points="1039.5,591.6563,1029.5,595.6563,1039.5,599.6563,1035.5,595.6563" style="stroke:#A80036;stroke-width:1.0;"/><line style="stroke:#A80036;stroke-width:1.0;" x1="1033.5" x2="1153.5" y1="595.6563" y2="595.6563"/><text fill="#000000" font-family="sans-serif" font-size="13" font-weight="bold" lengthAdjust="spacingAndGlyphs" textLength="18" x="1045.5" y="590.9141">12</text><text fill="#000000" font-family="sans-serif" font-size="13" lengthAdjust="spacingAndGlyphs" textLength="80" x="1067.5" y="590.9141">data delivery</text><polygon fill="#A80036" points="688.5,620.9668,678.5,624.9668,688.5,628.9668,684.5,624.9668" style="stroke:#A80036;stroke-width:1.0;"/><line style="stroke:#A80036;stroke-width:1.0;" x1="682.5" x2="1027.5" y1="624.9668" y2="624.9668"/><text fill="#000000" font-family="sans-serif" font-size="13" font-weight="bold" lengthAdjust="spacingAndGlyphs" textLength="18" x="694.5" y="620.2246">13</text><text fill="#000000" font-family="sans-serif" font-size="13" lengthAdjust="spacingAndGlyphs" textLength="80" x="716.5" y="620.2246">data delivery</text><polygon fill="#A80036" points="487.5,650.2773,477.5,654.2773,487.5,658.2773,483.5,654.2773" style="stroke:#A80036;stroke-width:1.0;"/><line style="stroke:#A80036;stroke-width:1.0;" x1="481.5" x2="676.5" y1="654.2773" y2="654.2773"/><text fill="#000000" font-family="sans-serif" font-size="13" font-weight="bold" lengthAdjust="spacingAndGlyphs" textLength="18" x="493.5" y="649.5352">14</text><text fill="#000000" font-family="sans-serif" font-size="13" lengthAdjust="spacingAndGlyphs" textLength="80" x="515.5" y="649.5352">data delivery</text><polygon fill="#A80036" points="236.5,679.5879,226.5,683.5879,236.5,687.5879,232.5,683.5879" style="stroke:#A80036;stroke-width:1.0;"/><line style="stroke:#A80036;stroke-width:1.0;" x1="230.5" x2="475.5" y1="683.5879" y2="683.5879"/><text fill="#000000" font-family="sans-serif" font-size="13" font-weight="bold" lengthAdjust="spacingAndGlyphs" textLength="18" x="242.5" y="678.8457">15</text><text fill="#000000" font-family="sans-serif" font-size="13" lengthAdjust="spacingAndGlyphs" textLength="80" x="264.5" y="678.8457">data delivery</text><polygon fill="#A80036" points="49.5,708.8984,39.5,712.8984,49.5,716.8984,45.5,712.8984" style="stroke:#A80036;stroke-width:1.0;"/><line style="stroke:#A80036;stroke-width:1.0;" x1="43.5" x2="224.5" y1="712.8984" y2="712.8984"/><text fill="#000000" font-family="sans-serif" font-size="13" font-weight="bold" lengthAdjust="spacingAndGlyphs" textLength="18" x="55.5" y="708.1563">16</text><text fill="#000000" font-family="sans-serif" font-size="13" lengthAdjust="spacingAndGlyphs" textLength="80" x="77.5" y="708.1563">data delivery</text><!--MD5=[7590706f1650f169edb449369415b8cf]
@startuml Keep Flow
title Domino Keep Flow
autonumber
actor User
participant "http\nListener" as http
boundary JWTCheck as jwt
collections Handler
queue EventBus
collections DbVerticles 
collections DbRequest 
control TheBarbican 
database Domino
group web front 
    User -> http : GET, POST, PUT, DELETE
    http -> jwt : identity check
end
group Setup for response
    jwt -> Handler : request check
    Handler -> EventBus : request dispatch
    EventBus -> DbVerticles : request delivery
    DbVerticles -> jwt : identity check 2
    DbVerticles -> EventBus : request accnowledgement
    EventBus -> Handler : request accnowledgement
end
group DominoJNX land
    DbVerticles -> DbRequest : request execution
    DbRequest -> Domino : data access
end
group Chunked response [Repeat as needed in 500 entrie batches]
    Domino -> TheBarbican : data filtering
    TheBarbican -> DbRequest : data delivery
    DbRequest -> EventBus : data delivery
    EventBus -> Handler : data delivery
    Handler -> http : data delivery
    http -> User: data delivery
end
@enduml

PlantUML version 1.2020.22(Sun Dec 06 17:36:27 SGT 2020)
(GPL source distribution)
Java Runtime: OpenJDK Runtime Environment
JVM: OpenJDK 64-Bit Server VM
Default Encoding: UTF-8
Language: en
Country: SG
--></g></svg>